<?xml version="1.0" encoding="UTF-8" standalone="no"?>
<svg
   xmlns:dc="http://purl.org/dc/elements/1.1/"
   xmlns:cc="http://creativecommons.org/ns#"
   xmlns:rdf="http://www.w3.org/1999/02/22-rdf-syntax-ns#"
   xmlns:svg="http://www.w3.org/2000/svg"
   xmlns="http://www.w3.org/2000/svg"
   xmlns:sodipodi="http://sodipodi.sourceforge.net/DTD/sodipodi-0.dtd"
   xmlns:inkscape="http://www.inkscape.org/namespaces/inkscape"
   version="1.1"
   id="Layer_1"
   sodipodi:docname="AJAX.svg"
   inkscape:version="0.48.2 r9819"
   x="0px"
   y="0px"
   width="450"
   height="100"
   viewBox="0 0 450 100"
   enable-background="new 0 0 900 450"
   xml:space="preserve"><metadata
   id="metadata11"><rdf:RDF><cc:Work
       rdf:about=""><dc:format>image/svg+xml</dc:format><dc:type
         rdf:resource="http://purl.org/dc/dcmitype/StillImage" /></cc:Work></rdf:RDF></metadata><defs
   id="defs9" /><sodipodi:namedview
   pagecolor="#ffffff"
   bordercolor="#666666"
   borderopacity="1"
   objecttolerance="10"
   gridtolerance="10"
   guidetolerance="10"
   inkscape:pageopacity="0"
   inkscape:pageshadow="2"
   inkscape:window-width="1280"
   inkscape:window-height="1004"
   id="namedview7"
   showgrid="false"
   inkscape:zoom="1.0119484"
   inkscape:cx="487.78021"
   inkscape:cy="15.017018"
   inkscape:window-x="-8"
   inkscape:window-y="-8"
   inkscape:window-maximized="1"
   inkscape:current-layer="Layer_1"
   fit-margin-top="0"
   fit-margin-left="0"
   fit-margin-right="0"
   fit-margin-bottom="0" />

<rect
   id="bg"
   width="100"
   height="450"
   x="0"
   y="-450"
   transform="matrix(0,1,-1,0,0,0)"
   style="fill:#ffffff;stroke:none" />

<path
   id="orn"
   inkscape:connector-curvature="0"
   d="m 7.451,0.006 0,4.386 3.723,0 3.726,0 0,-4.386 -3.727,0 -3.722,0 z m 21.977,0 0,4.386 -3.725,0 -3.727,0 0,4.386 -3.353,0 -3.726,0 0,4.386 -3.727,0 -3.723,0 0,4.386 -3.729,0 -3.718,0 0,3.947 0,4.386 0,4.386 3.724,0 3.729,0 0,4.386 3.723,0 3.727,0 0,4.386 3.726,0 3.354,0 0,4.386 3.725,0 3.726,0 0,4.386 3.727,0 3.726,0 0,-4.386 3.726,0 3.726,0 0,-4.387 3.724,0 3.727,0 0,-4.386 3.353,0 3.728,0 0,-4.386 3.724,0 3.727,0 0,-4.386 3.726,0 3.725,0 0,-4.386 -3.725,0 -3.726,0 0,-3.947 -3.727,0 -3.724,0 0,-4.386 -3.728,0 -3.353,0 0,-4.385 -3.727,0 -3.724,0 0,-4.386 -3.726,0 -3.726,0 0,-4.386 -3.726,0 -3.733,0 0,0 z m 22.35,0 0,4.386 3.353,0 3.729,0 0,-4.386 -3.729,0 -3.353,0 z m 29.43,0 0,4.386 -3.726,0 -3.726,0 0,4.386 -3.726,0 -3.727,0 0,4.386 3.727,0 3.726,0 0,4.386 3.726,0 3.726,0 0,3.947 3.724,0 3.729,0 0,-3.947 3.723,0 3.354,0 0,-4.386 3.724,0 3.727,0 0,-4.386 -3.727,0 -3.724,0 0,-4.386 -3.354,0 -3.723,0 0,-4.386 -3.729,0 -3.724,0 z m 29.429,0 0,4.386 3.727,0 3.726,0 0,-4.386 -3.726,0 -3.727,0 z m 21.979,0 0,4.386 -3.727,0 -3.353,0 0,4.386 -3.726,0 -3.726,0 0,4.386 -3.726,0 -3.727,0 0,4.386 -3.725,0 -3.727,0 0,3.947 -3.726,0 -3.725,0 0,4.386 3.725,0 3.726,0 0,4.386 3.727,0 3.725,0 0,4.386 3.727,0 3.726,0 0,4.386 3.726,0 3.726,0 0,4.386 3.353,0 3.727,0 0,4.386 3.726,0 3.727,0 0,4.386 -3.727,0 -3.726,0 0,4.386 -3.727,0 -3.353,0 0,4.387 -3.726,0 -3.726,0 0,4.386 -3.726,0 -3.727,0 0,4.386 -3.725,0 -3.727,0 0,3.947 -3.726,0 -3.725,0 0,4.386 3.725,0 3.726,0 0,4.386 3.727,0 3.725,0 0,4.386 3.727,0 3.726,0 0,4.386 3.726,0 3.726,0 0,4.386 3.353,0 3.727,0 0,4.379 3.726,0 3.727,0 3.723,0 3.726,0 0,-4.387 3.727,0 3.726,0 0,-4.386 3.725,0 3.727,0 0,-4.386 3.727,0 3.725,0 0,-4.386 -3.725,0 -3.727,0 0,-4.386 -3.727,0 -3.725,0 0,-4.386 -3.726,0 -3.727,0 0,4.386 0,4.386 -3.726,0 -3.723,0 0,-4.386 0,-4.386 0,-3.947 3.723,0 3.726,0 0,-4.386 3.727,0 3.726,0 0,-4.386 3.725,0 3.727,0 0,4.386 3.727,0 3.725,0 0,4.386 3.354,0 3.726,0 0,3.947 3.724,0 3.721,0 0,4.386 3.725,0 3.727,0 0,4.386 3.726,0 3.726,0 0,4.386 -3.726,0 -3.726,0 0,4.386 -3.727,0 -3.725,0 0,4.386 -3.727,0 -3.724,0 0,4.387 3.724,0 3.727,0 3.725,0 3.727,0 3.726,0 3.726,0 0,-4.387 3.354,0 3.725,0 0,-4.386 3.717,0 3.726,0 0,-4.386 3.726,0 3.727,0 0,-4.386 3.721,0 3.725,0 0,4.386 3.726,0 3.726,0 0,4.386 3.725,0 3.726,0 0,4.386 3.725,0 3.353,0 0,4.387 3.726,0 3.725,0 3.726,0 3.725,0 3.726,0 3.725,0 0,-4.387 -3.725,0 -3.726,0 0,-4.386 -3.725,0 -3.726,0 0,-4.386 -3.725,0 -3.726,0 0,-4.386 3.726,0 3.725,0 0,-4.386 3.726,0 3.725,0 0,-4.386 3.726,0 3.725,0 0,-3.947 3.726,0 3.353,0 0,-4.386 3.725,0 3.726,0 0,-4.386 3.725,0 3.726,0 0,4.386 3.725,0 3.726,0 0,4.386 3.726,0 3.725,0 0,3.947 0,4.386 0,4.386 -3.725,0 -3.726,0 0,-4.386 0,-4.386 -3.726,0 -3.725,0 0,4.386 -3.726,0 -3.725,0 0,4.386 -3.726,0 -3.725,0 0,4.386 3.725,0 3.726,0 0,4.386 3.725,0 3.726,0 0,4.386 3.725,0 3.726,0 0,4.387 3.726,0 3.725,0 3.726,0 3.725,0 0,-4.387 3.726,0 3.353,0 0,-4.386 3.725,0 3.726,0 0,-4.386 3.725,0 3.726,0 0,-4.386 3.725,0 3.726,0 0,-4.386 3.725,0 3.726,0 0,-4.386 -3.726,0 -3.725,0 0,-3.947 -3.726,0 -3.725,0 0,-4.386 -3.726,0 -3.725,0 0,-4.386 -3.726,0 -3.725,0 0,-4.387 -3.353,0 -3.726,0 0,-4.386 -3.725,0 -3.726,0 0,-4.386 3.726,0 3.725,0 0,-4.385 3.726,0 3.353,0 0,-4.386 3.725,0 3.726,0 0,-4.386 3.725,0 3.726,0 0,-4.386 3.725,0 3.726,0 0,-4.386 3.725,0 3.726,0 0,-4.386 -3.726,0 -3.725,0 0,-3.947 -3.726,0 -3.725,0 0,-4.386 -3.726,0 -3.725,0 0,-4.385 -3.726,0 -3.725,0 0,-4.386 -3.353,0 -3.726,0 0,-4.386 -3.725,0 -3.726,0 -3.725,0 -3.726,0 0,4.386 -3.726,0 -3.725,0 0,4.386 -3.726,0 -3.725,0 0,4.386 -3.726,0 -3.725,0 0,4.386 3.725,0 3.726,0 0,3.947 3.725,0 3.726,0 0,4.386 3.725,0 3.726,0 0,-4.386 0,-3.947 3.726,0 3.725,0 0,3.947 0,4.386 0,4.386 -3.725,0 -3.726,0 0,4.386 -3.726,0 -3.725,0 0,4.386 -3.726,0 -3.725,0 0,-4.386 -3.726,0 -3.725,0 0,-4.386 -3.353,0 -3.726,0 0,-4.386 -3.725,0 -3.726,0 0,-4.386 -3.725,0 -3.726,0 0,-3.947 -3.539,0 -0.186,0 -3.726,0 0,-4.386 3.726,0 0.186,0 3.539,0 0,-4.386 3.726,0 3.725,0 0,-4.386 3.726,0 3.725,0 0,-4.386 -3.725,0 -3.726,0 -3.725,0 -3.726,0 -3.725,0 -3.726,0 0,4.386 -3.353,0 -3.725,0 0,4.386 -3.726,0 -3.725,0 0,4.386 -3.726,0 -3.726,0 0,4.386 -3.725,0 -3.725,0 0,-4.386 -3.726,0 -3.726,0 0,-4.386 -3.725,0 -3.728,0 0,-4.386 -3.726,0 -3.353,0 0,-4.386 -3.726,0 -3.726,0 -3.727,0 -3.726,0 -3.726,0 -3.724,0 0,4.386 3.724,0 3.726,0 0,4.386 3.726,0 3.727,0 0,4.386 3.538,0 0.188,0 3.726,0 0,4.386 -3.726,0 -0.188,0 -3.538,0 0,3.947 -3.727,0 -3.726,0 0,4.386 -3.726,0 -3.724,0 0,4.386 -3.726,0 -3.354,0 0,4.386 -3.725,0 -3.726,0 0,4.386 -3.726,0 -3.726,0 0,-4.386 -3.726,0 -3.727,0 0,-4.386 -3.726,0 -3.724,0 0,-4.386 0,-4.386 0,-3.947 3.724,0 3.726,0 0,3.947 0,4.386 3.727,0 3.726,0 0,-4.386 3.726,0 3.726,0 0,-3.947 3.726,0 3.725,0 0,-4.386 -3.725,0 -3.726,0 0,-4.386 -3.726,0 -3.726,0 0,-4.386 -3.726,0 -3.727,0 0,-4.386 -3.726,0 -3.724,0 -3.726,0 -3.727,0 0,0.006 0.019,0 z m 29.801,0 0,4.386 3.726,0 3.726,0 0,-4.386 -3.726,0 -3.726,0 z m 117.715,0 0,4.386 3.726,0 3.726,0 0,-4.386 -3.726,0 -3.726,0 z m 51.78,0 0,4.386 3.726,0 3.725,0 0,-4.386 -3.725,0 -3.726,0 z m 29.429,0 0,4.386 -3.726,0 -3.353,0 0,4.386 -3.725,0 -3.726,0 0,4.386 3.726,0 3.725,0 0,4.386 3.353,0 3.726,0 0,3.947 3.725,0 3.726,0 0,-3.947 3.725,0 3.726,0 0,-4.386 3.725,0 3.726,0 0,-4.386 -3.726,0 -3.725,0 0,-4.386 -3.726,0 -3.725,0 0,-4.386 -3.726,0 -3.725,0 0,0 z m 29.801,0 0,4.386 3.725,0 3.353,0 0,-4.386 -3.353,0 -3.725,0 0,0 z m 21.979,0 0,4.386 -3.725,0 -3.726,0 0,4.386 -3.725,0 -3.726,0 0,4.386 -3.353,0 -3.725,0 0,4.386 -3.726,0 -3.725,0 0,3.947 -3.726,0 -3.725,0 0,4.386 3.725,0 3.726,0 0,4.386 3.725,0 3.726,0 0,4.386 3.725,0 3.354,0 0,4.386 3.726,0 3.724,0 0,4.386 3.726,0 3.725,0 0,4.386 3.726,0 3.726,0 0,-4.386 3.725,0 3.724,0 0,-4.387 3.353,0 3.725,0 0,-4.386 3.726,0 3.723,0 0,-4.386 3.725,0 3.726,0 0,-4.386 0,-4.386 0,-3.947 -3.726,0 -3.725,0 0,-4.386 -3.726,0 -3.725,0 0,-4.385 -3.726,0 -3.353,0 0,-4.386 -3.725,0 -3.726,0 0,-4.386 -3.725,0 -3.722,0 0,0 z m 21.978,0 0,4.386 3.725,0 3.725,0 0,-4.386 -3.726,0 -3.724,0 z m -353.891,8.77 3.724,0 3.729,0 0,4.386 -3.729,0 -3.724,0 0,-4.386 z m 280.133,0 3.725,0 3.726,0 0,4.386 -3.726,0 -3.725,0 0,-4.386 z m -331.913,4.387 3.727,0 3.726,0 0,4.386 3.727,0 3.725,0 0,3.947 3.724,0 3.727,0 0,4.386 -3.727,0 -3.724,0 0,4.386 -3.725,0 -3.727,0 0,4.386 -3.726,0 -3.727,0 0,-4.386 -3.725,0 -3.727,0 0,-4.386 -3.353,0 -3.726,0 0,-4.386 3.726,0 3.353,0 0,-3.947 3.727,0 3.725,0 0,-4.386 z m 383.693,0 3.726,0 3.726,0 0,4.386 3.725,0 3.724,0 0,3.947 3.353,0 3.725,0 0,4.386 -3.726,0 -3.353,0 0,4.386 -3.725,0 -3.726,0 0,4.386 -3.725,0 -3.726,0 0,-4.386 -3.725,0 -3.726,0 0,-4.386 -3.725,0 -3.726,0 0,-4.386 3.726,0 3.725,0 0,-3.947 3.726,0 3.726,0 10e-4,-4.386 0,0 z m -383.693,8.332 0,4.386 3.727,0 3.726,0 0,-4.386 -3.726,0 -3.727,0 z m 383.693,0 0,4.386 3.726,0 3.726,0 0,-4.386 -3.726,0 -3.726,0 z m -331.913,4.386 0,4.386 -3.726,0 -3.726,0 0,4.386 -3.726,0 -3.727,0 0,4.386 3.727,0 3.726,0 0,4.386 3.726,0 3.726,0 0,4.386 3.724,0 3.729,0 0,-4.386 3.723,0 3.354,0 0,-4.386 3.724,0 3.727,0 0,-4.386 -3.727,0 -3.724,0 0,-4.386 -3.354,0 -3.723,0 0,-4.386 -3.729,0 -3.724,0 z m 125.165,0 3.727,0 3.726,0 3.726,0 3.727,0 3.721,0 3.725,0 3.726,0 3.726,0 3.725,0 3.726,0 0,4.386 3.725,0 3.353,0 0,4.386 3.726,0 3.725,0 0,4.386 3.726,0 3.725,0 0,4.386 3.726,0 3.725,0 0,4.386 3.726,0 3.353,0 0,4.386 -3.353,0 -3.726,0 0,4.386 -3.725,0 -3.726,0 0,4.387 -3.725,0 -3.726,0 0,4.386 -3.725,0 -3.726,0 0,4.386 -3.353,0 -3.725,0 0,3.947 -3.726,0 -3.725,0 -3.726,0 -3.726,0 -3.725,0 -3.725,0 -3.726,0 -3.726,0 -3.725,0 -3.728,0 0,-3.947 -3.726,0 -3.353,0 0,-4.386 -3.726,0 -3.726,0 0,-4.386 -3.727,0 -3.726,0 0,-4.387 -3.726,0 -3.724,0 0,-4.386 -3.726,0 -3.354,0 0,-4.386 3.354,0 3.726,0 0,-4.386 3.724,0 3.726,0 0,-4.386 3.726,0 3.727,0 0,-4.386 3.726,0 3.726,0 0,-4.386 3.353,0 3.726,0 0.003,-4.386 0,0 z m 154.968,0 0,4.386 -3.726,0 -3.353,0 0,4.386 -3.725,0 -3.726,0 0,4.386 3.726,0 3.725,0 0,4.386 3.353,0 3.726,0 0,4.386 3.725,0 3.726,0 0,-4.386 3.725,0 3.726,0 0,-4.386 3.725,0 3.726,0 0,-4.386 -3.726,0 -3.725,0 0,-4.386 -3.726,0 -3.725,0 0,-4.386 -3.726,0 -3.725,0 z m -140.066,5.263 0,4.386 3.725,0 3.725,0 0,-4.386 -3.725,0 -3.725,0 z m -140.067,3.509 3.724,0 3.729,0 0,4.386 -3.729,0 -3.724,0 0,-4.386 z m 280.133,0 3.725,0 3.726,0 0,4.386 -3.726,0 -3.725,0 0,-4.386 z m -162.045,4.386 0,4.386 3.353,0 3.726,0 0,4.386 3.725,0 3.726,0 0,4.386 -3.726,0 -3.727,0 0,4.386 -3.725,0 -3.354,0 0,4.387 3.354,0 3.725,0 3.727,0 3.726,0 0,-4.387 3.726,0 3.727,0 0,-4.386 3.721,0 3.725,0 0,4.386 3.726,0 3.726,0 0,4.387 3.725,0 3.726,0 3.725,0 3.353,0 0,-4.387 -3.353,0 -3.725,0 0,-4.386 -3.726,0 -3.725,0 0,-4.386 3.725,0 3.726,0 0,-4.386 3.725,0 3.353,0 0,-4.386 -3.353,0 -3.725,0 -3.726,0 -3.725,0 0,4.386 -3.726,0 -3.726,0 0,4.386 -3.725,0 -3.725,0 0,-4.386 -3.726,0 -3.726,0 0,-4.386 -3.725,0 -3.728,0 -3.726,0 -3.348,0 z M 0,47.811 l 0,4.386 3.724,0 3.729,0 3.723,0 3.727,0 0,-4.386 -3.727,0 -3.723,0 -3.729,0 -3.724,0 z m 51.778,0 0,4.386 3.353,0 3.729,0 3.723,0 3.726,0 0,-4.386 -3.726,0 -3.723,0 -3.729,0 -3.353,0 z m 51.409,0 0,4.386 3.726,0 3.725,0 3.727,0 3.726,0 0,-4.386 -3.726,0 -3.727,0 -3.725,0 -3.726,0 z m 81.208,0 0,4.386 3.726,0 3.728,0 0,-4.386 -3.728,0 -3.726,0 z m 73.759,0 0,4.386 3.726,0 3.725,0 0,-4.386 -3.725,0 -3.726,0 z m 73.758,0 0,4.386 3.726,0 3.725,0 3.726,0 3.725,0 0,-4.386 -3.725,0 -3.726,0 -3.725,0 -3.726,0 z m 51.78,0 0,4.386 3.725,0 3.726,0 3.725,0 3.353,0 0,-4.386 -3.353,0 -3.725,0 -3.726,0 -3.725,0 z m 51.407,0 0,4.386 3.725,0 3.725,0 3.725,0 3.726,0 0,-4.386 -3.726,0 -3.725,0 -3.726,0 -3.724,0 z m -405.671,4.384 0,4.386 -3.725,0 -3.727,0 0,4.387 -3.353,0 -3.726,0 0,4.386 -3.727,0 -3.723,0 0,4.386 -3.729,0 -3.718,0 0,3.947 0,4.386 0,4.386 3.724,0 3.729,0 0,4.386 3.723,0 3.727,0 0,4.386 3.726,0 3.354,0 0,4.386 3.725,0 3.726,0 0,4.383 3.727,0 3.726,0 0,-4.387 3.726,0 3.726,0 0,-4.386 3.724,0 3.727,0 0,-4.386 3.353,0 3.728,0 0,-4.386 3.724,0 3.727,0 0,-4.386 3.726,0 3.725,0 0,-4.386 -3.725,0 -3.726,0 0,-3.947 -3.727,0 -3.724,0 0,-4.386 -3.728,0 -3.353,0 0,-4.386 -3.727,0 -3.724,0 0,-4.387 -3.726,0 -3.726,0 0,-4.386 -3.726,0 -3.727,0 0,0.004 -0.006,0 z m 51.78,0 0,4.386 -3.726,0 -3.726,0 0,4.387 -3.726,0 -3.727,0 0,4.386 3.727,0 3.726,0 0,4.386 3.726,0 3.726,0 0,3.947 3.724,0 3.729,0 0,-3.947 3.723,0 3.354,0 0,-4.386 3.724,0 3.727,0 0,-4.386 -3.727,0 -3.724,0 0,-4.387 -3.354,0 -3.723,0 0,-4.386 -3.729,0 -3.724,0 z m 280.133,0 0,4.386 -3.726,0 -3.353,0 0,4.387 -3.725,0 -3.726,0 0,4.386 3.726,0 3.725,0 0,4.386 3.353,0 3.726,0 0,3.947 3.725,0 3.726,0 0,-3.947 3.725,0 3.726,0 0,-4.386 3.725,0 3.726,0 0,-4.386 -3.726,0 -3.725,0 0,-4.387 -3.726,0 -3.725,0 0,-4.386 -3.726,0 -3.725,0 z m 51.78,0 0,4.386 -3.725,0 -3.726,0 0,4.387 -3.725,0 -3.726,0 0,4.386 -3.353,0 -3.725,0 0,4.386 -3.726,0 -3.725,0 0,3.947 -3.726,0 -3.725,0 0,4.386 3.725,0 3.726,0 0,4.386 3.725,0 3.726,0 0,4.386 3.725,0 3.354,0 0,4.386 3.726,0 3.724,0 0,4.386 3.726,0 3.725,0 0,4.383 3.726,0 3.726,0 0,-4.387 3.725,0 3.724,0 0,-4.386 3.353,0 3.725,0 0,-4.386 3.726,0 3.723,0 0,-4.386 3.725,0 3.726,0 0,-4.386 0,-4.386 0,-3.947 -3.726,0 -3.725,0 0,-4.386 -3.726,0 -3.725,0 0,-4.386 -3.726,0 -3.353,0 0,-4.387 -3.725,0 -3.726,0 0,-4.386 -3.725,0 -3.724,0 0,0.004 0.002,0 z m -331.913,8.772 3.724,0 3.729,0 0,4.386 -3.729,0 -3.724,0 0,-4.386 z m 280.133,0 3.725,0 3.726,0 0,4.386 -3.726,0 -3.725,0 0,-4.386 z m -140.066,3.508 0,4.386 3.725,0 3.725,0 0,-4.386 -3.725,0 -3.725,0 z m -191.847,0.878 3.727,0 3.726,0 0,4.386 3.727,0 3.725,0 0,3.947 3.724,0 3.727,0 0,4.386 -3.727,0 -3.724,0 0,4.386 -3.725,0 -3.727,0 0,4.386 -3.726,0 -3.727,0 0,-4.386 -3.725,0 -3.727,0 0,-4.386 -3.353,0 -3.726,0 0,-4.386 3.726,0 3.353,0 0,-3.947 3.727,0 3.725,0 0,-4.386 z m 383.693,0 3.726,0 3.726,0 0,4.386 3.725,0 3.724,0 0,3.947 3.353,0 3.725,0 0,4.386 -3.726,0 -3.353,0 0,4.386 -3.725,0 -3.726,0 0,4.386 -3.725,0 -3.726,0 0,-4.386 -3.725,0 -3.726,0 0,-4.386 -3.725,0 -3.726,0 0,-4.386 3.726,0 3.725,0 0,-3.947 3.726,0 3.726,0 10e-4,-4.386 0,0 z m -383.693,8.332 0,4.386 3.727,0 3.726,0 0,-4.386 -3.726,0 -3.727,0 z m 383.693,0 0,4.386 3.726,0 3.726,0 0,-4.386 -3.726,0 -3.726,0 z m -331.913,4.385 0,4.386 -3.726,0 -3.726,0 0,4.386 -3.726,0 -3.727,0 0,0.219 0,4.167 3.727,0 3.726,0 0,4.386 3.726,0 3.726,0 0,4.386 3.724,0 3.729,0 0,-4.387 3.723,0 3.354,0 0,-4.386 3.724,0 3.727,0 0,-4.386 -3.727,0 -3.724,0 0,-4.386 -3.354,0 -3.723,0 0,-4.386 -3.729,0 -3.724,10e-4 0,0 z m 280.133,0 0,4.386 -3.726,0 -3.353,0 0,4.386 -3.725,0 -3.726,0 0,4.386 3.726,0 3.725,0 0,4.386 3.353,0 3.726,0 0,4.386 3.725,0 3.726,0 0,-4.387 3.725,0 3.726,0 0,-4.386 3.725,0 3.726,0 0,-4.167 0,-0.219 -3.726,0 -3.725,0 0,-4.386 -3.726,0 -3.725,0 0,-4.386 -3.726,0 -3.725,10e-4 0,0 z m -280.133,8.772 3.724,0 3.729,0 0,4.386 -3.729,0 -3.724,0 0,-4.386 z m 280.133,0 3.725,0 3.726,0 0,4.386 -3.726,0 -3.725,0 0,-4.386 z m -353.89,8.771 0,4.387 3.723,0 3.726,0 0,-4.387 -3.727,0 -3.722,0 z m 44.327,0 0,4.387 3.353,0 3.729,0 0,-4.387 -3.729,0 -3.353,0 z m 58.859,0 0,4.387 3.727,0 3.726,0 0,-4.387 -3.726,0 -3.727,0 z m 51.78,0 0,4.387 3.726,0 3.726,0 0,-4.387 -3.726,0 -3.726,0 z m 117.715,0 0,4.387 3.725,0 3.726,0 0,-4.387 -3.726,0 -3.725,0 z m 51.78,0 0,4.387 3.726,0 3.725,0 0,-4.387 -3.725,0 -3.726,0 z m 59.23,0 0,4.387 3.725,0 3.353,0 0,-4.387 -3.353,0 -3.725,0 z m 43.957,0 0,4.387 3.725,0 3.725,0 0,-4.387 -3.726,0 -3.724,0 0,0 z"
   style="fill:#cc0000;fill-opacity:1;stroke:none" />
</svg>